<svg width="241" height="50" viewBox="0 0 241 50" fill="none" xmlns="http://www.w3.org/2000/svg">
<g clip-path="url(#clip0_521_582)">
<path d="M234.446 8.85178C226.606 0.505799 213.202 -2.02329 203.338 3.79361C201.062 5.31106 199.545 6.82851 198.28 8.85178C197.774 6.06978 195.751 3.5407 193.475 2.02325C192.21 1.26452 190.693 0.505799 189.175 0.505799C186.899 0.252891 184.623 1.51743 182.6 2.52907C181.082 3.28779 179.565 4.04652 178.047 4.29943L172.736 5.31106C165.402 6.06979 158.826 0.758708 158.826 0.758708C158.826 0.758708 156.297 -1.01165 156.044 4.29943C155.539 10.3692 161.861 11.3809 163.885 11.6338L164.39 14.9216C164.643 16.9448 164.896 18.7152 164.643 20.7385C164.137 24.0263 162.873 27.0612 160.85 29.8432C158.573 32.6252 155.286 34.6484 152.504 37.1775L148.71 39.7066C149.216 39.4537 149.722 37.6833 149.975 37.1775L151.492 34.3955L153.768 28.0728C155.791 21.4972 156.297 13.657 153.009 7.58724C150.986 3.79361 147.193 0.505799 142.64 0.758708C137.835 0.758708 132.271 1.77034 130.501 10.875C128.477 19.9797 127.719 30.349 123.672 35.1543L123.925 33.131L124.178 30.8548L124.684 25.5437C124.431 21.2443 123.672 16.9448 121.649 13.1512C119.878 9.86341 117.855 6.5756 115.326 4.04652C113.303 2.02325 110.015 -1.77026e-05 106.727 0.758708C104.957 1.26452 104.704 3.28779 104.704 5.05815L106.221 14.9216V19.221C106.221 19.9797 106.221 21.2443 105.463 21.7501C103.945 22.7617 104.198 19.4739 104.198 18.7152C104.198 16.1861 102.934 13.657 101.922 11.6338L100.405 9.35759C99.14 7.08142 96.8638 4.04652 93.8289 4.80524C89.2766 5.81688 92.8173 9.86341 93.8289 10.6221C94.8405 11.6338 99.6458 14.9216 100.405 17.9565C101.163 20.9914 100.152 23.7734 100.152 24.785C100.152 25.7966 100.152 28.8315 104.451 28.8315C109.003 28.8315 113.05 22.7617 112.797 15.6803L113.556 16.9448C114.314 18.3358 114.997 19.7774 115.579 21.2443C116.085 23.2676 116.591 25.5437 116.591 27.567C116.591 29.3374 115.579 31.1077 114.062 31.8664C111.533 33.6368 107.992 35.6601 104.704 36.9246C98.6342 39.4537 92.0585 41.7299 94.5876 30.349C97.1167 18.9681 93.8289 14.9216 91.0469 11.128C88.012 7.08142 77.3899 -1.77026e-05 72.8375 0.758708C68.5381 1.26452 68.2852 2.27616 62.9741 7.08142C57.9159 11.8867 53.1107 12.8983 50.0758 13.9099C47.0409 14.9216 47.0409 19.7268 53.3636 18.7152C59.6863 17.7036 60.6979 14.9216 63.9857 10.875C67.5264 6.82851 70.8142 9.10469 70.8142 9.10469C72.8375 10.1163 73.8491 11.3809 73.0904 14.4158C72.3317 17.4507 66.5148 19.7268 62.4683 21.7501C60.445 22.7617 57.1572 25.0379 54.3752 28.0728H54.1223V28.5786L52.3519 25.0379L52.099 24.5321C49.0641 20.2327 42.2356 17.9565 35.9129 17.1978C35.9129 17.1978 38.442 15.1745 41.224 12.1396C43.753 9.10469 45.2705 4.80524 39.9594 2.02325C36.1658 0.252891 31.1076 -1.77026e-05 26.8082 1.01162C22.0029 2.02325 17.9564 4.55233 13.9098 6.32269C10.622 7.84014 -2.5292 14.1629 0.758606 18.9681C4.04642 23.7734 10.622 20.9914 10.622 20.9914C11.8866 23.7734 11.3808 27.0612 10.8749 29.8432C10.1162 32.8781 8.59877 35.6601 7.08132 38.4421C6.32259 40.2124 3.28769 42.9944 4.80514 45.0177C7.58713 48.3055 10.1162 48.0526 17.7035 48.8113C25.2907 49.57 35.4071 50.5817 45.2705 44.5119C46.535 44.0061 47.5467 42.9944 48.5583 42.2357C50.0758 46.5351 55.3868 49.3171 60.9508 49.57C68.2852 49.8229 76.3782 45.0177 80.9306 41.7299C81.9422 45.0177 85.9887 50.8346 93.576 49.57C99.8987 48.5584 109.762 41.9828 114.82 38.1892L112.797 42.7415C111.027 45.5235 110.268 46.2822 111.027 47.041C112.038 48.0526 115.073 49.57 117.349 49.57C119.626 49.57 125.442 46.5351 128.983 40.9711C132.777 35.4072 136.318 30.349 137.835 24.0263C139.352 17.7036 138.847 17.9565 139.858 17.9565C140.87 17.9565 141.629 20.9914 141.882 22.003C142.134 23.0147 143.905 30.8548 140.111 39.2008C138.847 41.477 137.582 44.0061 137.076 46.2822C136.823 47.5468 137.582 48.0526 138.594 48.3055L141.629 49.57C143.399 49.8229 145.675 48.0526 147.193 47.2939L151.998 44.5119C150.733 46.788 150.986 48.8113 153.515 49.3171C157.815 50.3288 159.332 45.7764 159.838 44.5119L161.861 44.0061C164.643 44.0061 167.678 45.0177 169.954 46.0293L174.507 48.3055C176.277 49.0642 178.553 49.8229 180.577 49.3171C182.094 49.0642 183.359 48.3055 184.623 47.5468C188.493 45.0683 191.704 41.6793 193.981 37.6833C195.498 35.913 196.51 34.1426 197.268 32.3723V36.1659L197.521 37.1775V38.9479L197.774 39.7066V39.9595C198.533 42.2357 199.292 44.259 201.062 45.7764C204.856 49.0642 211.684 50.0759 216.49 49.3171H216.742C220.789 48.5584 223.318 44.5119 225.847 41.477L234.193 32.3723C236.722 29.8432 238.998 26.8083 240.01 23.5205C241.78 17.7036 237.987 12.6454 234.446 8.85178ZM47.7996 31.6135C46.0292 32.6252 40.2123 35.4072 32.6251 36.1659C25.2907 36.9246 21.2442 37.4304 18.7151 38.9479C15.9331 40.4653 13.9098 43.2473 14.4157 40.9711C14.9215 38.695 17.4506 32.8781 16.6918 29.8432L13.9098 20.2327C13.9098 20.2327 19.9796 14.1629 21.75 10.875C23.5204 7.58723 26.8082 3.79361 32.3722 3.5407C36.1658 3.28779 34.9012 6.32269 33.8896 7.84014C32.6251 10.1163 30.6018 12.1396 28.5785 13.9099C26.3024 15.6803 23.2675 17.7036 22.5087 19.9797C21.75 22.003 22.5087 22.7617 23.7733 24.2792C25.2907 25.7966 25.5436 27.3141 31.1076 26.0496C36.9245 25.0379 41.7298 24.785 47.2938 27.0612C52.8577 29.0845 49.5699 30.6019 47.7996 31.6135ZM88.2649 30.0961H85.9887L81.9422 30.6019C79.666 30.8548 77.137 31.6135 75.1137 32.8781C72.8375 34.1426 70.8142 35.6601 68.2852 36.6717C67.0206 37.4304 65.5032 37.9362 63.7328 37.6833C62.7212 37.6833 61.4566 37.1775 60.9508 36.1659C60.445 34.6484 61.7095 32.6252 62.7212 31.3606C64.4915 28.8315 66.7677 26.8083 69.2968 24.785C71.8259 23.0147 74.355 21.4972 76.1253 18.9681L77.3899 16.9448C78.1486 14.9216 77.8957 12.6454 76.884 10.6221C76.3782 9.86341 75.6195 8.85178 74.355 8.09305L71.8259 7.08142C71.8259 7.08142 76.6311 6.32269 82.448 13.1512C84.9771 16.1861 84.4713 20.7385 83.9655 22.7617C83.7126 25.0379 82.448 27.567 86.2417 28.5786C87.7591 28.8315 88.2649 28.3257 89.0237 28.3257C89.5295 28.5786 89.5295 29.5903 88.2649 30.0961ZM163.632 40.9711L161.355 40.7182C163.885 37.4304 166.667 33.6368 168.184 29.5903C169.954 25.0379 169.196 20.7385 168.437 15.9332L167.931 11.3809L170.207 10.875C171.472 10.6221 172.989 9.86341 174.254 9.10469C176.024 8.34596 177.542 7.58724 179.818 8.34596C181.082 9.10469 182.347 10.1163 183.359 11.3809C185.129 14.6687 185.129 18.4623 184.623 22.2559C183.713 27.39 181.639 32.2205 178.553 36.4188C177.036 38.4421 174.76 40.4653 172.231 41.2241H167.931L163.632 40.9711ZM219.271 31.6135C217.501 34.3955 214.719 37.6833 214.213 40.9711C213.96 44.0061 214.466 44.5119 214.466 45.2706C214.466 46.0293 211.937 46.0293 210.42 44.7648C208.902 43.2473 206.879 41.7299 208.649 31.8664C209.408 27.8199 210.673 23.2676 209.661 18.9681C208.649 15.4274 205.867 11.3809 201.821 12.6454C201.315 12.6454 200.05 12.6454 201.315 10.875C201.821 9.6105 202.832 8.85178 203.844 8.09305C207.891 5.05815 213.708 5.31106 217.754 9.6105C220.536 12.6454 223.571 16.1861 223.824 20.4856C223.824 24.5321 221.548 28.3257 219.271 31.6135Z" fill="black"/>
</g>
<defs>
<clipPath id="clip0_521_582">
<rect width="240.769" height="50" fill="white"/>
</clipPath>
</defs>
</svg>
