<svg width="197" height="70" viewBox="0 0 197 70" fill="none" xmlns="http://www.w3.org/2000/svg">
<path d="M8.48291 28.6147C8.92788 29.4711 9.51898 30.1645 10.2562 30.695C10.9927 31.2263 11.8577 31.6196 12.8519 31.8765C13.8453 32.1333 14.8733 32.2617 15.9358 32.2617C16.6554 32.2617 17.4264 32.2023 18.2488 32.0819C19.0712 31.9623 19.8422 31.7312 20.5618 31.3885C21.2814 31.0465 21.8805 30.5754 22.3608 29.9759C22.8402 29.3771 23.0803 28.6147 23.0803 27.6901C23.0803 26.6973 22.7631 25.8923 22.1295 25.2759C21.495 24.6595 20.6646 24.1458 19.6366 23.7349C18.6086 23.324 17.4433 22.9644 16.1414 22.6562C14.8388 22.348 13.5201 22.006 12.1837 21.6289C10.8128 21.2869 9.47639 20.8672 8.17451 20.3704C6.8719 19.8743 5.70734 19.2323 4.67935 18.4441C3.65136 17.6568 2.82016 16.672 2.18648 15.4906C1.55206 14.3091 1.23559 12.8797 1.23559 11.2015C1.23559 9.31853 1.63797 7.68287 2.44348 6.29598C3.24825 4.90909 4.30193 3.75334 5.60454 2.82875C6.90642 1.90415 8.38011 1.21951 10.0249 0.774087C11.6697 0.329401 13.3145 0.106323 14.9592 0.106323C16.8779 0.106323 18.7195 0.320595 20.4847 0.748404C22.2491 1.17695 23.8168 1.87039 25.1877 2.82875C26.5579 3.78783 27.6461 5.01182 28.4516 6.50145C29.2564 7.99107 29.6595 9.7977 29.6595 11.9206H21.8468C21.7777 10.825 21.5464 9.91731 21.1529 9.19818C20.7586 8.47905 20.2358 7.91402 19.5852 7.50309C18.9339 7.09216 18.1886 6.80157 17.3493 6.62986C16.5093 6.45889 15.5929 6.37303 14.5994 6.37303C13.9481 6.37303 13.2968 6.44201 12.6463 6.5785C11.995 6.71572 11.4039 6.95567 10.873 7.29763C10.3414 7.64031 9.90447 8.06812 9.5623 8.58179C9.21939 9.09545 9.0483 9.74634 9.0483 10.5337C9.0483 11.2528 9.18488 11.8355 9.4595 12.2802C9.73338 12.7256 10.2731 13.1365 11.0786 13.513C11.8834 13.8901 12.9972 14.2666 14.4195 14.643C15.8411 15.0202 17.7003 15.4994 19.9964 16.0813C20.6815 16.2185 21.6324 16.4665 22.8491 16.8261C24.065 17.1857 25.2729 17.7595 26.4727 18.5469C27.6718 19.335 28.7086 20.388 29.5824 21.7059C30.4562 23.0246 30.8931 24.7108 30.8931 26.7655C30.8931 28.4437 30.567 30.0016 29.9165 31.4399C29.2652 32.8781 28.2974 34.1197 27.0124 35.1639C25.7274 36.2089 24.134 37.0219 22.2323 37.6038C20.3305 38.1857 18.1284 38.4771 15.6274 38.4771C13.6052 38.4771 11.644 38.2283 9.7422 37.7322C7.84042 37.2362 6.16112 36.4569 4.70505 35.3951C3.24825 34.334 2.09176 32.9808 1.23559 31.3371C0.378689 29.6934 -0.0325069 27.7415 0.00200414 25.4813H7.81472C7.81472 26.7141 8.0372 27.7591 8.48291 28.6147Z" fill="black"/>
<path d="M36.5977 16.7748C37.4201 14.4296 38.6023 12.383 40.1443 10.6365C41.6863 8.89008 43.5792 7.5208 45.8239 6.52722C48.0679 5.53438 50.5953 5.0376 53.4053 5.0376C56.2492 5.0376 58.7847 5.53438 61.0125 6.52722C63.2395 7.5208 65.1244 8.89008 66.6664 10.6365C68.2084 12.383 69.3906 14.4296 70.213 16.7748C71.0353 19.1208 71.4465 21.6635 71.4465 24.4027C71.4465 27.0738 71.0353 29.5651 70.213 31.8766C69.3906 34.1881 68.2084 36.2002 66.6664 37.9121C65.1244 39.6248 63.2395 40.9684 61.0125 41.9444C58.7847 42.9203 56.2492 43.4083 53.4053 43.4083C50.5953 43.4083 48.0679 42.9203 45.8239 41.9444C43.5792 40.9684 41.6863 39.6248 40.1443 37.9121C38.6023 36.2002 37.4201 34.1881 36.5977 31.8766C35.7753 29.5651 35.3641 27.0738 35.3641 24.4027C35.3641 21.6635 35.7753 19.1208 36.5977 16.7748ZM43.9735 28.8973C44.3333 30.3532 44.9068 31.663 45.6954 32.8268C46.4833 33.9914 47.5113 34.9248 48.7794 35.6263C50.0468 36.3286 51.5887 36.6793 53.4053 36.6793C55.2212 36.6793 56.7632 36.3286 58.0313 35.6263C59.2986 34.9248 60.3266 33.9914 61.1153 32.8268C61.9031 31.663 62.4773 30.3532 62.8371 28.8973C63.1969 27.4422 63.3768 25.9437 63.3768 24.4027C63.3768 22.7935 63.1969 21.2356 62.8371 19.7284C62.4773 18.2219 61.9031 16.8776 61.1153 15.6961C60.3266 14.5147 59.2986 13.5732 58.0313 12.871C56.7632 12.1695 55.2212 11.818 53.4053 11.818C51.5887 11.818 50.0468 12.1695 48.7794 12.871C47.5113 13.5732 46.4833 14.5147 45.6954 15.6961C44.9068 16.8776 44.3333 18.2219 43.9735 19.7284C43.6137 21.2356 43.4338 22.7935 43.4338 24.4027C43.4338 25.9437 43.6137 27.4422 43.9735 28.8973Z" fill="black"/>
<path d="M101.772 10.7649C101.292 9.99436 100.693 9.31853 99.9732 8.73589C99.2536 8.15398 98.4392 7.70048 97.5317 7.37467C96.6234 7.0496 95.6725 6.88669 94.679 6.88669C92.8624 6.88669 91.3204 7.23819 90.0531 7.93971C88.785 8.64196 87.757 9.58343 86.9691 10.7649C86.1805 11.9463 85.607 13.2906 85.2472 14.7971C84.8874 16.3044 84.7075 17.8622 84.7075 19.4715C84.7075 21.0125 84.8874 22.5109 85.2472 23.966C85.607 25.4219 86.1805 26.7318 86.9691 27.8956C87.757 29.0601 88.785 29.9935 90.0531 30.695C91.3204 31.3973 92.8624 31.7481 94.679 31.7481C97.1462 31.7481 99.0737 30.9952 100.461 29.4879C101.849 27.9814 102.697 25.995 103.006 23.5294H110.818C110.613 25.824 110.081 27.8956 109.225 29.7448C108.368 31.594 107.237 33.1694 105.833 34.4705C104.427 35.7722 102.783 36.7651 100.898 37.4497C99.0135 38.1344 96.9406 38.4771 94.679 38.4771C91.8689 38.4771 89.3416 37.9891 87.0976 37.0131C84.8529 36.0372 82.9599 34.6936 81.418 32.9808C79.876 31.2689 78.6938 29.2568 77.8714 26.9453C77.049 24.6338 76.6378 22.1425 76.6378 19.4715C76.6378 16.7322 77.049 14.1895 77.8714 11.8436C78.6938 9.49831 79.876 7.45173 81.418 5.70527C82.9599 3.95881 84.8529 2.58952 87.0976 1.59595C89.3416 0.60311 91.8689 0.106323 94.679 0.106323C96.7005 0.106323 98.6111 0.397645 100.41 0.979553C102.209 1.5622 103.819 2.40974 105.242 3.52219C106.663 4.63538 107.837 6.01346 108.762 7.65719C109.688 9.30092 110.27 11.1846 110.51 13.3075H102.697C102.56 12.3829 102.252 11.5354 101.772 10.7649Z" fill="black"/>
<path d="M125.673 5.91077V42.5864H117.603V5.91077H125.673Z" fill="black"/>
<path d="M152.349 0.979492L166.073 37.6551H157.695L154.919 29.4879H141.196L138.317 37.6551H130.196L144.074 0.979492H152.349ZM152.812 23.478L148.186 10.02H148.083L143.303 23.478H152.812Z" fill="black"/>
<path d="M178.614 5.91077V35.806H196.501V42.5864H170.545V5.91077H178.614Z" fill="black"/>
<path d="M46.3802 69.8938H42.7793V51.4092H48.4009L51.7639 65.9437L55.1019 51.4092H60.6612V69.8938H57.0595V57.3904C57.0595 57.0309 57.0639 56.5275 57.072 55.8795C57.0801 55.2316 57.0845 54.7319 57.0845 54.3811L53.5835 69.8938H49.8313L46.3552 54.3811C46.3552 54.7326 46.3596 55.2323 46.3677 55.8795C46.3758 56.5275 46.3802 57.0316 46.3802 57.3904V69.8938Z" fill="black"/>
<path d="M75.7218 66.094H68.9077L67.6279 69.8936H63.5872L70.1876 51.4091H74.5543L81.1048 69.8936H76.9136L75.7218 66.094ZM74.6424 62.9085L72.3331 55.635L69.9489 62.9085H74.6424Z" fill="black"/>
<path d="M91.9494 62.6451H87.9586V69.8936H84.1815V51.4091H93.2543C94.551 51.434 95.5489 51.5932 96.2472 51.8853C96.9455 52.1781 97.5373 52.6088 98.0227 53.1768C98.4243 53.645 98.7422 54.1638 98.9765 54.7317C99.2107 55.3004 99.3282 55.9484 99.3282 56.6756C99.3282 57.5532 99.1064 58.4169 98.6629 59.2652C98.2194 60.1135 97.4874 60.7137 96.4667 61.0645C97.32 61.4072 97.9243 61.8944 98.2804 62.5255C98.6358 63.1566 98.8135 64.12 98.8135 65.4159V66.6576C98.8135 67.5022 98.8465 68.0745 98.9141 68.3754C99.0147 68.8516 99.2489 69.2031 99.6168 69.4291V69.8929H95.3631C95.2456 69.4834 95.1626 69.1532 95.112 68.9023C95.0114 68.3842 94.957 67.8529 94.949 67.3099L94.924 65.5921C94.9071 64.4136 94.692 63.6277 94.2778 63.2343C93.8637 62.8418 93.0876 62.6451 91.9494 62.6451ZM94.2962 59.2843C95.0657 58.9328 95.4505 58.2393 95.4505 57.2025C95.4505 56.0819 95.0782 55.3298 94.3336 54.9453C93.9151 54.7281 93.288 54.6195 92.4517 54.6195H87.9594V59.5859H92.3386C93.2087 59.5851 93.8615 59.4846 94.2962 59.2843Z" fill="black"/>
<path d="M119.685 69.8935H114.715L109.005 61.8172L107.161 63.7105V69.8928H103.359V51.4082H107.161V59.02L114.301 51.4082H119.295L111.716 59.02L119.685 69.8935Z" fill="black"/>
<path d="M135.373 61.8174H126.389V66.5702H136.628V69.8936H122.611V51.4091H136.176V54.6818H126.389V58.607H135.373V61.8174Z" fill="black"/>
<path d="M153.722 51.4082V54.681H148.188V69.8928H144.298V54.681H138.738V51.4082H153.722Z" fill="black"/>
</svg>
