<?xml version="1.0" encoding="utf-8"?>
<!-- Generator: Adobe Illustrator 26.4.1, SVG Export Plug-In . SVG Version: 6.00 Build 0)  -->
<svg version="1.1" id="Слой_1" xmlns="http://www.w3.org/2000/svg" xmlns:xlink="http://www.w3.org/1999/xlink" x="0px" y="0px"
	 viewBox="0 0 2329 544.5" style="enable-background:new 0 0 2329 544.5;" xml:space="preserve">
<style type="text/css">
	.st0{fill:#030304;}
</style>
<path class="st0" d="M2306.7,11.4c3.6-5.3,9.7-7.9,14.9-11.4c3.2,2.6,6,5.7,7.5,9.7v3.4c-3.1,11.5-10.4,21.2-14.3,32.4
	c-8.8,23.5-14.8,47.9-21.6,72c-5.3,18.5-8.8,37.4-12.8,56.1c-4.1,20.1-8.2,40.2-12.2,60.3c-3.4,19.4-4.1,39.2-5.3,58.8
	c-0.6,15.3-2.6,30.5-6.8,45.2c13,3.5,24.9,10.5,34,20.5c-6.1,8-12.1,16.1-18.3,23.9c-6.1,6.1-14.5,10.1-18.8,17.8
	c-1.3,6.4-0.8,13-0.7,19.5c0.6,11,1.8,22,3.9,32.8c1.8,9.1,5.7,17.8,5.6,27.2c0.3,2.6-1.9,4.2-3.5,5.9c-6.8,6.2-14.8,11.1-23.1,15
	c-8.9,4.2-17.7,8.5-26.6,12.5c-3.7-9.6-7.6-19.3-9.4-29.5c-2.1-22.8-0.8-45.7-0.4-68.6c-6.4-3.7-13.2-6.8-20.5-7.9
	c-12.2-2.2-24.6-0.1-36.4,2.8c7.1,10.8,13.3,22.2,17.7,34.3c7.6,20.2,10.7,42,10.8,63.5c-6.5,4-12.6,8.7-17.2,14.7
	c-3,3.7-5,8.6-9.6,10.5c-6.2,3.1-11.6,7.9-18.5,9.7c-4,1.2-8.1,1.4-12.2,1.6c-0.7-10.4-2.7-20.6-4.9-30.8
	c-9-37.2-28.4-71.1-52.1-100.9c-10.9,4.1-22.7,5.2-34.3,5.4c7.2-7.9,13.2-17.6,14-28.6c1.7-17.1-6.2-33.7-17.1-46.4
	c-13-14.5-26.3-28.7-39.3-43.2c-7.3,34.3-9.3,69.8-6.3,104.7c0.9,9.6,1.9,19.3,3.2,28.9c0.9,7,2.8,13.9,2.4,21
	c-0.3,6.4,2.5,12.3,4.8,18.2c1.6,3.4-0.7,6.9-1.9,10.1c-3.7,7.8-7.3,15.7-12.4,22.6c-4.7,3-10.5,3.3-15.8,4.9
	c-14.9,3.5-30.6,5.2-45.6,1.6c-13.9-3.3-25.9-12.8-32.6-25.3c-10.3-18.9-11.9-41-11.9-62.1c1.1-45.3,11.6-89.7,23-133.3
	c-25.5,2.5-50.3,9.7-75.8,12.8c-23.2,3.8-46.3,8.7-69.3,13.7c-9.9,2.8-19.5,6.4-29.4,9.3c10.4,31.7,22.3,63.1,39,92
	c6,10.1,13.7,19.3,19.3,29.7c9.7,17.7,19.4,35.5,29.1,53.2c-28.5,15.1-60,23.4-91.5,29.3c-15.6-13.3-27.4-30.6-36.7-48.8
	c-8.7-17.7-17-35.6-25.4-53.5c-6.1-11.5-12.8-22.8-18.5-34.5c-6.9-15.5-11.9-32.4-23.1-45.5c-6.9,1.8-13.8,3.8-20.9,4.9
	c-9.9,1.7-20,1.5-29.9,0.8c1.3,12.2,2.8,24.5,4.5,36.7c1.3,11.1,6.9,21.6,6,33c-1,15.3,5.1,29.9,5.2,45.1c0,9.7,0.2,19.4-0.5,29.2
	c-19.1,18.9-44.2,30.4-69.9,37.1c-6.8-10.1-11.4-21.5-13.8-33.4c-0.8-4.3-1.1-8.7-2.9-12.7c-2.4-5.1-1.7-10.8-2-16.3
	c-0.8-17.6-1.6-35.3-3.1-52.9c-0.8-7.3-0.2-14.9-2.9-21.8c-2.2-5.8-1-12.1-1.2-18.2c0.3-11.5-2.6-22.7-3.1-34.1
	c-1-20.1,4.8-40.9-1.6-60.5c3.1-5.7,3.4-12.3,2.7-18.7c17.2-12.6,34.5-25.2,51.7-37.8c4.9,2.1,9.8,4.5,13.8,8.1
	c2.1,1.7,2.2,4.5,2.8,7c1.7,9.9,4.2,19.9,3.7,30c-0.2,4.1,0.4,8.1,1.7,12c2.2,6.9,0,14.3,1.6,21.3c0.9,3.8,1.9,7.6,2.8,11.5
	c11.4-9.6,24.9-16.6,38.5-22.7c-8.2-31.8-14.8-64-21.7-96.1c-5.8-18.4-11.1-37.5-10.8-57c0-14.4,0-28.7,0-43
	c27.9-11.4,53.9-27.3,77.5-46c1.9-1.6,4.3-2.5,6.8-2.7c7-0.9,14.1-1.6,21.2-2.4c-1.6,18.7-3.3,37.4-2.9,56.2
	c0.6,43,11.2,85.2,25.8,125.4c25.7-19.4,50.1-40.3,74.8-60.9c13-11,27-20.8,39.2-32.8c14.7-13.4,27.4-28.7,42.4-41.6
	c5.2-4.2,10.1-8.8,16.1-11.8c10.3-0.9,20.7-0.1,31.1-0.4c1,4.7,2.1,9.5,3.2,14.2c-17,16.1-33.9,32.4-50.9,48.6
	c-4.3,4.4-9.2,8.2-14.2,11.8c-8.4,5.9-13.6,15-21.4,21.5c-22.9,19.5-45.8,38.9-68.7,58.3c-5,4.3-10.3,8.3-14.5,13.4
	c-6.4,7.7-12.8,15.5-19.1,23.3c24-4.2,47.8-9.1,71.7-13.6c22.5-4.8,45.4-8.3,67.6-14.4c29.9-4.7,59.9-9,89.8-13.5
	c14-16.1,24.3-35.1,31.8-55.1c13.8,1,27.7-0.1,41.4-2.4c13.8-1.7,27.2-5.3,41.1-6.6c5.3-0.5,10.4-2.1,15.4-4
	c33.4-12.5,68.6-19.7,101-34.9C2218.3,104,2268.5,62.1,2306.7,11.4 M2163.3,172c-37.7,19.3-78.5,32.2-120.1,39.8
	c-2.4,0.4-4.7,1.1-6.7,2.5c-5.6,3.8-11.3,7.4-16.9,11.2c11.7,17.9,28.5,31.5,41,48.7c6.5,8.5,12.7,17.3,18.9,26.1
	c10,14.4,20.1,28.7,28.8,43.9c8.3,0.8,16.7,1.3,25,0.5c8.6-0.5,17.1-2.1,25.8-2.6c13.3-1.3,26.7-0.1,40-0.8c3-1.8,5.6-4.5,6.6-7.9
	c3.5-9.8,4.7-20.3,4.9-30.6c-0.1-2.1,1-4,1.8-5.9c1.5-3.5,1.7-7.3,2.5-10.9c1.7-8.1,3.1-16.2,5-24.2c1.8-7.2,2.2-14.6,3.5-21.8
	c1.3-9.9,6-19,7-29c0.5-7.5,2.6-14.7,4.2-22c2.5-9.3,4.8-18.7,7.4-28c3.8-11.9,8.9-23.4,11.6-35.6c1.4-6.1,1.1-12.4-0.5-18.4
	C2226.9,133,2196.4,155,2163.3,172z M868.2,18.8c5.6-2,8.9-7.3,13.7-10.5c7.2-1.4,13.7,2.2,20.3,4.4c3.8,15.7,4.9,31.9,5.1,48
	c0.2,4.9-0.1,9.8,1.3,14.5c0.9,3.1,1.2,6.3,1.1,9.5c-0.1,15,0.1,30-0.1,45c-0.7,7.2-2.6,14.2-2.1,21.5
	c-18.7,19.9-42.5,34.2-67.8,44.1c-8.8-20.9-12.9-44-9.8-66.5c0.9-8,2.7-15.9,2.1-24c-0.9-17.4-1.6-34.9-2.1-52.3
	c11.7-6.7,22.1-15.7,30.6-26.2C862.9,23.5,864.6,20,868.2,18.8z M1480.8,19.8c6.2-2.3,10.6-7.4,15.4-11.6c7.2-1,13.8,2.2,20.4,4.4
	c4.8,17.6,5,36,5.3,54.1c-0.2,5.8,2.8,11.2,2.7,17c-0.1,11.3,0,22.7,0,34c-0.1,6,0.4,12.1-1,18c-1.2,5-1.6,10.2-1.4,15.3
	c-12.8,14-28.4,25.1-45.1,33.9c-2.1,0.7-2.1,3.1-2.5,4.8c-4.1,21.1-8.5,42.1-13.5,63c-5.8,23.8-12,47.5-20.9,70.3
	c-4.2,9.8-8.4,20.1-16,27.9c-6.5,6.2-12.9,12.5-19.6,18.4c-5.7,5.1-13.4,7.3-20.7,8.6c-8.8,1-17.8,0.7-26.6-0.9
	c1.1-22.1,8.5-43.2,14.2-64.4c10.7-37.7,21.2-75.5,32-113.2c-16.7,7.4-34.1,12.9-51.1,19.4c-22.7,8.2-45.2,16.8-68,24.8
	c7.1,21.6,14.1,43.1,21,64.7c2.5,7.3,3.4,15,6.2,22.1c4.1,10.1,9.7,19.6,13,30c3.2,17.2,11.8,32.9,20.9,47.7
	c7.2,11.6,14.2,23.3,20.5,35.3c3.1,6.2,6.7,12.4,8.2,19.2c0.5,5.5,0.1,11.1,0.2,16.7c-12.2,15-26.9,27.8-42.5,39.2
	c-6.6,4.6-13,9.5-20,13.5c-5.7,0.6-11.5,0.1-17.2,0.2c-7.1-17.5-17.5-33.5-29.7-47.8c-5-5.7-7.1-13.1-10.2-19.8
	c-8.6-20.3-17.3-40.6-25.3-61.1c-9.9-30.8-20.3-61.5-27.7-93c-2.9-17.4-6.4-34.7-11.2-51.7c-0.5-1.4-0.8-3.4-2.6-3.5
	c-38.1-7.8-77.2-7.8-115.4-14.5c-1.4,3.1-5.3,6.3-3.3,9.9c16.7,41.6,34.8,82.6,52.9,123.6c0.4,1.3,1.2,2.7,0.7,4.1
	c-2.7,14-9.8,27.1-20.2,36.8c-11.9,11.2-27.2,18.1-42.9,22.3c-19.5-28.7-38.4-58.4-49.1-91.7c-6.8-19.3-14.7-38.3-22.6-57.2
	c-1.7-4.1-4.2-7.8-6.6-11.6c-10.8-17.2-21.6-34.4-32.4-51.6c-12.3-19.3-21.1-40.7-26.8-62.8c-0.7-1.4,0.8-2.4,1.7-3.2
	c21.7-17.2,43.4-34.3,65-51.5c27.8,7.1,51.8,23.5,78.8,32.9c31.6,11.6,63.4,22.6,95.9,31.3c8.5,1.9,17.3,2.4,25.9,3.9
	c7.5-20.6,12.6-42.1,17.3-63.5c5.2-24.2,10.4-48.4,16.1-72.5c11.3,1.3,22.7,2.3,34,4c3.2,30.4,2.3,61,0.2,91.4
	c-0.2,2.3,0.3,4.7,1.2,6.8c5.3,13.9,10.4,27.8,15.6,41.7c14.4-1.6,28.7-3.9,43.1-5.7c5.7-0.6,11-2.9,16.6-4.2
	c22.2-6.4,44.3-13.1,66.2-20.5c14.8-6.7,29.7-13.2,44.4-20.3c0.6-8.5,2.7-17,2.4-25.6c-0.4-18.4-1.5-36.8-2-55.2
	c9.6-5.4,18.2-12.4,25.7-20.5C1474.1,28.2,1476.8,23.3,1480.8,19.8z M451,36.7c2.9-2.3,5.6-5,8.9-6.9c7.5,4.6,14.4,10.2,21.7,15.2
	c18,13,36.2,25.8,54.2,38.8c1.6,1.1,3.3,2.1,5.2,2.7c32.2,8.2,61.5,24.5,91.5,38.4c12.1,5.5,23.7,12.3,36.5,16.1
	c10.6,3.6,21.3,7.1,31.8,10.9c14.4,6.3,28.6,12.8,43,19.1c8.8,3.8,18.3,5.5,26.7,10.1c11.3,6.2,24.4,8.3,35.8,14.2
	c12,6.3,24.1,12.7,36.2,19c0,5.1,0,10.1,0,15.2c-21.2,18.3-44.6,34.1-69.1,47.6c-37.4,20.7-77.6,35.8-118.6,47.7
	c12.9,9.9,28.1,16.2,43.1,22.2c20.3,7.5,40.8,14.6,60.9,22.8c19.6,7.8,39.4,15.1,59.4,21.6c8.1,2.6,16.6,4.1,24.5,7.2
	c5.3,2.1,11,3.6,16,6.4c1.8,3.8,2.1,8.1,3,12.2c-0.1-4.2,0-8.5-0.8-12.7c-0.7-3.7-2.4-7.1-2.8-10.8c-0.7-6,0.4-12.1-0.1-18.1
	c-0.2-8.7-2.3-17.3-2.9-26c-1.7-21.2,4.8-42.9-1.7-63.6c2.8-5.8,3.2-12.2,2.5-18.5c15.9-11.8,32.1-23.3,48-35.2
	c1.3-0.9,2.6-1.8,4.1-2.4c4.7,1.3,8.9,4.1,12.7,7.1c3.7,2.7,3.6,7.6,4.5,11.7c1.1,8.6,3.6,17.2,3.2,25.9c-0.1,3.9,0.2,7.7,1.3,11.5
	c2.3,7.7-0.4,16,2.2,23.7c3.4,10.6,2.5,21.9,3.6,32.8c0.4,5.5,2.8,10.5,3.5,16c1.3,10.1,2.6,20.1,3.7,30.2
	c1.1,12.2,7.2,23.5,6.7,35.8c-0.5,8.8,0.8,17.5,2.6,26.1c3.5,15.8,3,32.2,1.9,48.2c-19.1,18.8-44.1,30.4-69.8,37
	c-7.7-11.5-12.7-24.7-14.5-38.4c-0.5-4.8-3.3-9.1-3.7-13.9c-0.7-21.1-2.1-42.1-3.4-63.2c-12.2,10.4-25.5,19.8-40.5,25.8
	c-11.6,4.7-23.3,9.4-34.9,14.2c-5,2.3-10.6,1.4-15.9,1c-22.3-2.1-44-8-64.8-16.2c-18.7-7.4-37.8-13.9-56-22.5
	c-8.8-4.2-18.7-5.4-27.5-9.5c-8-3.8-16-7.4-24.2-10.7c0.5,12.9,2.1,25.6,4,38.4c2.7,19.8,7.2,39.6,6,59.7c-9.4,3.8-18,9.4-25.4,16.3
	c-3.7,3.3-6.7,7.5-11.3,9.6c-8.4,4.2-17,7.9-26.1,10.2c-5.3-4.2-11.3-7.5-16.2-12.2c-1-4.5-0.6-9.1-1.1-13.7
	c-2.3-17.9-6.8-35.5-9.3-53.4c-0.8-7.5-1.6-15.1-3-22.6c-1-6-2.7-11.8-3.4-17.9c-0.5-15-3.3-29.9-6.9-44.5
	c-20.1-9-42.8-11.5-64.6-8.7c-0.8,26.5,1.5,52.9,5.7,79c0.7,4,0.8,8,0.8,12c0.1,5.9,2.2,11.5,4.4,16.8c0.6,1.9,1.8,3.9,0.8,5.9
	c-2.8,8.1-6.9,15.6-11.1,23c-1.2,2-2.3,4.2-4.2,5.7c-5,2.2-10.5,3.1-15.8,4.5c-13.7,3.1-28,4.8-41.9,2c-12.9-2.4-24.9-9.8-32.3-20.7
	c-10.1-14.7-13.5-32.8-14.7-50.3c-1.6-28.1,1.9-56.3,7.1-83.9c4.1-22.4,9.6-44.5,15.5-66.4c-21.1,2.1-41.7,7.2-62.5,10.9
	c-27.7,3.7-54.9,9.6-82.2,15.6c-10.1,2.7-19.9,6.4-29.8,9.5c10,30.1,21.3,59.9,36.6,87.7c6.6,12.1,15.8,22.6,22.2,34.9
	c9.5,17.5,19.3,34.8,28.6,52.4c-28.5,15-60,23.4-91.5,29.2c-15.5-13.5-27.4-30.7-36.7-49c-8.7-17.7-17-35.7-25.4-53.5
	c-6-11.2-12.4-22.3-18.1-33.7c-7.1-15.7-11.9-32.8-23.4-46c-13.1,3.9-26.6,6.7-40.3,6.2c-11.5,0.2-22.8-2.8-33-8.1v-0.9
	c2.1-9.4,7.9-17.5,14.8-24c11.9-11.3,26.8-18.9,41.6-25.6c-5.7-23.3-11-46.7-16-70.2c-2.2-9.1-3.6-18.4-6.1-27.5
	c-5.5-17.6-10.6-35.9-10.1-54.5c0.1-14.7,0-29.4,0-44.1c25.9-10.7,50.2-25.2,72.5-42.2c3.4-2.5,6.6-6,11.1-6.4
	c7.3-1,14.7-1.7,22-2.5c-1.4,13.7-2.7,27.4-3.2,41.2c-1.8,48.1,9.6,95.5,25.6,140.5c15.8-11.9,31-24.5,46.2-37
	c16.8-14.2,33.6-28.5,51-42c6.9-5.4,13.3-11.4,19.6-17.5c17.7-16.6,33.2-35.9,53.5-49.6c2.4-1.8,5.6-1.5,8.4-1.5
	c8.3,0.1,16.5,0,24.8,0.1c1.2,4.7,2.3,9.4,3.4,14.1c-18,17.3-36.2,34.5-54.2,51.9c-5.9,5.5-13.2,9.4-18.6,15.5
	c-4.4,4.9-8.4,10.1-13.4,14.4c-22.9,19.4-45.8,38.9-68.8,58.3c-5,4.3-10.3,8.3-14.5,13.3c-6.6,7.8-13,15.7-19.4,23.6
	c24.4-4.3,48.7-9.2,73.1-13.9c21.6-4.6,43.5-7.8,64.8-13.8c4.3-1,8.6-1.5,12.9-2.1c32.7-5,65.4-9.8,98.1-14.8
	c7-0.8,13.5-3.9,20.5-4.6c5.5-0.6,11.1-0.3,16.6,0.4c-2.2-7.9-7.7-14.2-11.2-21.4c-4.5-8.7-8.6-17.6-12.7-26.4
	c-3.1-6.3-3.5-13.7-7.1-19.8c-12.8-23-25.5-46.1-38.3-69.1c12.1-12.8,25.8-24,39.9-34.6C434.9,48.5,443.3,43.1,451,36.7
	 M522.7,169.9c11.7,34,22,68.6,36.3,101.6c2,3.9,3.3,8.5,6.8,11.3c10.8-0.4,21.4-2.1,32.2-2.9c23.5-2.5,46.9-5.8,70-10.5
	c17.8-3.8,35.6-8.3,52.6-15.1c3.8-1.4,6.6-4.4,9.5-7.1c-11.2-6.8-23.5-11.7-36-15.8c-6.5-2.2-13.3-3.4-19.5-6.5
	c-17.7-8.4-35-18.1-53.8-24.1c-3.7-1.2-7.7-1.4-11.2-3C582.5,184,552.7,175.6,522.7,169.9 M460,260.2c-6.9,19.8-12.3,40.1-15,60.9
	c11.8-9,24.7-16.5,37.9-23.3c-6.1-16.4-12.2-32.8-18.1-49.3C463,252.3,461.4,256.2,460,260.2z"/>
</svg>
